<svg width="30" height="84" viewBox="0 0 30 84" fill="none" xmlns="http://www.w3.org/2000/svg">
<path d="M28.8902 44.5521C30.8402 38.4521 29.0002 32.3221 25.3602 26.9621C23.7302 24.5621 19.6502 23.7521 21.2302 26.7321C21.9202 28.0421 23.5102 30.6721 24.0202 32.0621C27.8802 42.5421 16.8102 54.1521 7.33021 58.5021C4.72021 59.7021 4.52021 59.9121 2.89021 60.8721L2.97021 20.8421C6.56021 22.6221 12.0402 22.1321 17.2102 19.4521C24.3902 15.7221 28.2102 8.86211 25.7602 4.14211C23.3002 -0.57789 15.5002 -1.38787 8.32021 2.35213C2.33021 5.46213 0.000213122 10.6121 0.0302131 15.0021V79.4921C0.0302131 80.3321 0.000214341 81.2221 0.000214341 82.0621C0.000214341 82.6821 -0.0297905 83.4421 0.620209 83.6321C1.38021 83.8521 2.83021 83.6821 3.33021 83.0021V83.0121C3.33021 83.0021 3.33021 82.9921 3.34021 82.9821C3.39021 82.9221 3.43021 82.8521 3.46021 82.7821C3.59021 82.4421 3.66021 82.0521 3.71021 81.6721C5.32021 76.5221 7.78021 75.6421 13.2402 72.2621C19.8702 68.1421 26.7602 61.9721 29.1502 54.5321C29.1502 54.5321 30.1302 50.7621 28.3502 46.0621C28.5302 45.5721 28.7202 45.0621 28.8902 44.5521ZM25.6102 51.1721C24.1102 61.1021 17.4802 65.2421 7.57021 68.4921C5.61021 69.1321 4.63021 69.1321 3.79021 69.5521C6.39021 66.7621 9.72021 64.3021 12.9802 62.2821C17.6102 59.4121 22.3702 55.5221 25.6302 50.9121C25.6202 51.0821 25.6102 51.1721 25.6102 51.1721Z" fill="#ffffff"/>
</svg>
