<svg width="37" height="90" viewBox="0 0 37 90" fill="none" xmlns="http://www.w3.org/2000/svg">
<path d="M28.8902 50.5521C30.8402 44.4521 29.0002 38.3221 25.3602 32.9621C23.7302 30.5621 19.6502 29.7521 21.2302 32.7321C21.9202 34.0421 23.5102 36.6721 24.0202 38.0621C27.8802 48.5421 16.8102 60.1521 7.33021 64.5021C4.72021 65.7021 4.52021 65.9121 2.89021 66.8721L2.97021 26.8421C6.56021 28.6221 12.0402 28.1321 17.2102 25.4521C24.3902 21.7221 28.2102 14.8621 25.7602 10.1421C23.3002 5.42211 15.5002 4.61213 8.32021 8.35213C2.33021 11.4621 0.000213122 16.6121 0.0302131 21.0021V85.4921C0.0302131 86.3321 0.000214341 87.2221 0.000214341 88.0621C0.000214341 88.6821 -0.0297905 89.4421 0.620209 89.6321C1.38021 89.8521 2.83021 89.6821 3.33021 89.0021V89.0121C3.33021 89.0021 3.33021 88.9921 3.34021 88.9821C3.39021 88.9221 3.43021 88.8521 3.46021 88.7821C3.59021 88.4421 3.66021 88.0521 3.71021 87.6721C5.32021 82.5221 7.78021 81.6421 13.2402 78.2621C19.8702 74.1421 26.7602 67.9721 29.1502 60.5321C29.1502 60.5321 30.1302 56.7621 28.3502 52.0621C28.5302 51.5721 28.7202 51.0621 28.8902 50.5521ZM25.6102 57.1721C24.1102 67.1021 17.4802 71.2421 7.57021 74.4921C5.61021 75.1321 4.63021 75.1321 3.79021 75.5521C6.39021 72.7621 9.72021 70.3021 12.9802 68.2821C17.6102 65.4121 22.3702 61.5221 25.6302 56.9121C25.6202 57.0821 25.6102 57.1721 25.6102 57.1721Z" fill="#ffffff"/>
<path d="M30 3.12C30 1.39 31.4 0 33.12 0C34.85 0 36.24 1.4 36.24 3.12C36.24 4.85 34.84 6.23999 33.12 6.23999C31.4 6.23999 30 4.85 30 3.12Z" fill="#ffffff"/>
</svg>
