<svg width="54" height="84" viewBox="0 0 54 84" fill="none" xmlns="http://www.w3.org/2000/svg">
<path d="M52.5714 39.179C52.4114 38.669 52.2214 38.159 52.0114 37.659C53.8014 32.949 52.8113 29.189 52.8113 29.189C50.4313 21.749 43.5313 15.579 36.9013 11.459C31.4513 8.07899 28.9913 7.19898 27.3713 2.04898C27.3213 1.66898 27.2513 1.28897 27.1213 0.938965C27.0913 0.868965 27.0413 0.798984 27.0013 0.738984C27.0013 0.728984 27.0013 0.718985 26.9913 0.708985V0.718964C26.5013 0.0489641 25.0513 -0.131041 24.2813 0.0889593C23.6313 0.278959 23.6613 1.04897 23.6613 1.65897C23.6613 1.78897 23.6613 1.92897 23.6613 2.06897L23.5313 62.879C19.9413 61.099 14.4613 61.589 9.29132 64.269C2.11132 67.999 -1.70867 74.859 0.741331 79.579C3.20133 84.299 11.0013 85.109 18.1813 81.369C24.1713 78.259 26.5013 73.109 26.4713 68.719V22.799C28.1613 23.799 28.3313 23.999 30.9813 25.209C40.4613 29.549 51.5313 41.169 47.6713 51.649C47.1613 53.039 45.5713 55.669 44.8813 56.979C43.3013 59.959 47.3714 59.149 49.0114 56.749C52.6914 51.399 54.5314 45.279 52.5714 39.179ZM36.6713 21.449C33.4113 19.429 30.0813 16.959 27.4813 14.179C28.3213 14.599 29.3014 14.599 31.2614 15.239C41.1714 18.489 47.8013 22.629 49.3013 32.559C49.3013 32.559 49.3013 32.649 49.3113 32.819C46.0513 28.199 41.3013 24.319 36.6713 21.449Z" fill="#ffffff"/>
</svg>
