<svg width="29" height="84" viewBox="0 0 29 84" fill="none" xmlns="http://www.w3.org/2000/svg">
<path d="M0.520291 83.77H3.08029C3.37029 83.77 3.61029 83.53 3.61029 83.24L3.64029 22.06C3.97029 22.28 4.28029 22.47 4.55029 22.58C8.47029 24.41 13.9903 23.94 18.9603 21.35C26.5203 17.42 30.2803 10.16 27.5103 4.82999C26.1103 2.13999 23.3203 0.449987 19.6503 0.0799866C19.1403 0.0299866 18.6203 0 18.1003 0C15.1703 0 12.0203 0.809996 9.08029 2.34C3.23029 5.38 0.410299 10.55 0.560299 15.35L0.520291 15.38L0.000301633 83.23C-0.00969837 83.54 0.230291 83.77 0.520291 83.77ZM10.9803 6.03C13.7403 4.6 16.6603 3.94999 19.2203 4.20999C20.5203 4.33999 22.8403 4.85 23.8203 6.75C25.4603 9.91 22.3603 14.91 17.0403 17.68C14.6803 18.91 12.1603 19.55 9.93029 19.55C8.57029 19.55 7.3203 19.31 6.2803 18.82L6.2503 18.81C6.1703 18.77 4.42028 17.91 3.79028 15.36C3.61028 12.21 6.61028 8.3 10.9803 6.03Z" fill="#ffffff"/>
</svg>
