<svg width="37" height="84" viewBox="0 0 37 84" fill="none" xmlns="http://www.w3.org/2000/svg">
<path d="M27.8992 0H25.3392C25.0492 0 24.8091 0.239999 24.8091 0.529999L24.7792 61.71C24.4492 61.49 24.1392 61.3 23.8692 61.19C19.9492 59.36 14.4292 59.83 9.45916 62.42C1.89916 66.35 -1.86077 73.61 0.909228 78.94C2.30923 81.63 5.09921 83.32 8.76921 83.69C9.27921 83.74 9.79914 83.77 10.3191 83.77C13.2491 83.77 16.3992 82.96 19.3392 81.43C25.1892 78.39 28.0092 73.22 27.8592 68.42L27.8992 68.39L28.4192 0.540001C28.4292 0.240001 28.1992 0 27.8992 0ZM17.4391 77.74C14.6791 79.17 11.7591 79.82 9.19915 79.56C7.89915 79.43 5.57917 78.92 4.59917 77.02C2.95917 73.86 6.0592 68.86 11.3792 66.09C13.7392 64.86 16.2592 64.22 18.4892 64.22C19.8492 64.22 21.0992 64.46 22.1392 64.95L22.1692 64.96C22.2492 65 23.9992 65.86 24.6292 68.41C24.8192 71.57 21.8191 75.47 17.4391 77.74Z" fill="#ffffff"/>
<path d="M30 80.12C30 78.39 31.4 77 33.12 77C34.85 77 36.24 78.4 36.24 80.12C36.24 81.85 34.84 83.24 33.12 83.24C31.4 83.24 30 81.85 30 80.12Z" fill="#ffffff"/>
</svg>
