<svg width="48" height="91" viewBox="0 0 48 91" fill="none" xmlns="http://www.w3.org/2000/svg">
<path d="M12.5203 90.0099H15.0803C15.3703 90.0099 15.6103 89.77 15.6103 89.48L15.6403 28.3C15.9703 28.52 16.2803 28.7099 16.5503 28.8199C20.4703 30.6499 25.9903 30.18 30.9603 27.59C38.5203 23.66 42.2803 16.3999 39.5103 11.0699C38.1103 8.37995 35.3203 6.68995 31.6503 6.31995C31.1403 6.26995 30.6203 6.23999 30.1003 6.23999C27.1703 6.23999 24.0203 7.04996 21.0803 8.57996C15.2303 11.62 12.4103 16.79 12.5603 21.59L12.5203 21.62L12.0003 89.47C11.9903 89.77 12.2303 90.0099 12.5203 90.0099ZM22.9803 12.2599C25.7403 10.8299 28.6603 10.1799 31.2203 10.4399C32.5203 10.5699 34.8403 11.08 35.8203 12.98C37.4603 16.14 34.3603 21.14 29.0403 23.91C26.6803 25.14 24.1603 25.78 21.9303 25.78C20.5703 25.78 19.3203 25.54 18.2803 25.05L18.2503 25.04C18.1703 25 16.4203 24.14 15.7903 21.59C15.6103 18.44 18.6103 14.5399 22.9803 12.2599Z" fill="#ffffff"/>
<path d="M41.3103 3.12C41.3103 1.39 42.7103 0 44.4303 0C46.1603 0 47.5503 1.4 47.5503 3.12C47.5503 4.84 46.1503 6.23999 44.4303 6.23999C42.7103 6.23999 41.3103 4.85 41.3103 3.12Z" fill="#ffffff"/>
<line x1="0.672889" y1="50.055" x2="26.6729" y2="41.055" stroke="#ffffff" stroke-width="2"/>
<line x1="0.672889" y1="69.055" x2="26.6729" y2="60.055" stroke="#ffffff" stroke-width="2"/>
<line x1="0.672889" y1="59.055" x2="26.6729" y2="50.055" stroke="#ffffff" stroke-width="2"/>
</svg>
