<svg width="36" height="91" viewBox="0 0 36 91" fill="none" xmlns="http://www.w3.org/2000/svg">
<path d="M0.520321 90.0099H3.08032C3.37032 90.0099 3.61032 89.77 3.61032 89.48L3.64032 28.3C3.97032 28.52 4.28032 28.7099 4.55032 28.8199C8.47032 30.6499 13.9903 30.18 18.9603 27.59C26.5203 23.66 30.2803 16.3999 27.5103 11.0699C26.1103 8.37995 23.3203 6.68995 19.6503 6.31995C19.1403 6.26995 18.6203 6.23999 18.1003 6.23999C15.1703 6.23999 12.0203 7.04996 9.08032 8.57996C3.23032 11.62 0.410299 16.79 0.560299 21.59L0.520321 21.62L0.000301596 89.47C-0.0096984 89.77 0.230321 90.0099 0.520321 90.0099ZM10.9803 12.2599C13.7403 10.8299 16.6603 10.1799 19.2203 10.4399C20.5203 10.5699 22.8403 11.08 23.8203 12.98C25.4603 16.14 22.3603 21.14 17.0403 23.91C14.6803 25.14 12.1603 25.78 9.93029 25.78C8.57029 25.78 7.3203 25.54 6.2803 25.05L6.2503 25.04C6.1703 25 4.42031 24.14 3.79031 21.59C3.61031 18.44 6.61031 14.5399 10.9803 12.2599Z" fill="#ffffff"/>
<path d="M29.3103 3.12C29.3103 1.39 30.7103 0 32.4303 0C34.1603 0 35.5503 1.4 35.5503 3.12C35.5503 4.84 34.1503 6.23999 32.4303 6.23999C30.7103 6.23999 29.3103 4.85 29.3103 3.12Z" fill="#ffffff"/>
</svg>
