<svg width="41" height="84" viewBox="0 0 41 84" fill="none" xmlns="http://www.w3.org/2000/svg">
<path d="M12.5203 83.77H15.0803C15.3703 83.77 15.6103 83.53 15.6103 83.24L15.6403 22.06C15.9703 22.28 16.2803 22.47 16.5503 22.58C20.4703 24.41 25.9903 23.94 30.9603 21.35C38.5203 17.42 42.2803 10.16 39.5103 4.82999C38.1103 2.13999 35.3203 0.449987 31.6503 0.0799866C31.1403 0.0299866 30.6203 0 30.1003 0C27.1703 0 24.0203 0.809996 21.0803 2.34C15.2303 5.38 12.4103 10.55 12.5603 15.35L12.5203 15.38L12.0003 83.23C11.9903 83.54 12.2303 83.77 12.5203 83.77ZM22.9803 6.03C25.7403 4.6 28.6603 3.94999 31.2203 4.20999C32.5203 4.33999 34.8403 4.85 35.8203 6.75C37.4603 9.91 34.3603 14.91 29.0403 17.68C26.6803 18.91 24.1603 19.55 21.9303 19.55C20.5703 19.55 19.3203 19.31 18.2803 18.82L18.2503 18.81C18.1703 18.77 16.4203 17.91 15.7903 15.36C15.6103 12.21 18.6103 8.3 22.9803 6.03Z" fill="#ffffff"/>
<line x1="0.672889" y1="44.055" x2="26.6729" y2="35.055" stroke="#ffffff" stroke-width="2"/>
<line x1="0.672889" y1="63.055" x2="26.6729" y2="54.055" stroke="#ffffff" stroke-width="2"/>
<line x1="0.672889" y1="53.055" x2="26.6729" y2="44.055" stroke="#ffffff" stroke-width="2"/>
</svg>
