<svg width="30" height="84" viewBox="0 0 30 84" fill="none" xmlns="http://www.w3.org/2000/svg">
<path d="M28.2803 35.6221C28.5103 35.0821 28.7203 34.5321 28.8903 33.9821C30.8403 27.8821 29.0003 21.7521 25.3603 16.3921C24.8403 15.6221 24.0703 15.0221 23.3103 14.6521C26.2503 11.2121 27.3403 7.22211 25.7303 4.14211C23.2703 -0.57789 15.4703 -1.38787 8.29028 2.35213C2.30028 5.46213 -0.0297143 10.6121 0.000285685 15.0021V79.5321C0.000285685 80.3721 0.000285685 81.2321 0.000285685 82.0621C0.000285685 82.6821 -0.0297192 83.4421 0.620281 83.6321C1.38028 83.8521 2.83029 83.6821 3.33029 83.0021V83.0121C3.33029 83.0021 3.33028 82.9921 3.34028 82.9821C3.39028 82.9221 3.43028 82.8521 3.46028 82.7821C3.59028 82.4421 3.66028 82.0521 3.71028 81.6721C5.32028 76.5221 7.78028 75.6421 13.2403 72.2621C19.8703 68.1421 26.7603 61.9721 29.1503 54.5321C29.1503 54.5321 30.1203 50.8321 28.3903 46.1821C28.6703 45.5321 28.9303 44.8821 29.1503 44.2121C29.1403 44.2321 30.1403 40.3921 28.2803 35.6221ZM25.6503 40.3221C25.6303 40.6521 25.6203 40.8621 25.6203 40.8621C24.1203 50.7921 17.4903 54.9321 7.58029 58.1821C5.20029 58.9621 4.27027 58.7921 3.27027 59.5821C5.94027 56.5521 9.50028 53.8721 12.9903 51.7021C17.6303 48.8321 22.3903 44.9421 25.6503 40.3221ZM17.1903 19.4521C18.7903 18.6221 20.2103 17.6321 21.4403 16.5421C22.2003 17.9321 23.5603 20.2221 24.0203 21.4921C27.8803 31.9721 16.8103 43.5821 7.33029 47.9321C4.71029 49.1321 4.52028 49.3421 2.88028 50.3021L2.94027 20.8421C6.54027 22.6321 12.0203 22.1421 17.1903 19.4521ZM25.6203 51.1821C24.1203 61.1121 17.4903 65.2521 7.58029 68.5021C6.08029 68.9921 5.16028 69.1021 4.43028 69.3221C6.14028 66.0721 8.78028 64.7321 13.2403 61.9621C17.7603 59.1621 22.3903 55.4021 25.6403 50.9421C25.6303 51.0921 25.6203 51.1821 25.6203 51.1821Z" fill="#ffffff"/>
</svg>
