<svg width="50" height="78" viewBox="0 0 50 78" fill="none" xmlns="http://www.w3.org/2000/svg">
<path d="M48.5381 45.9313C48.3781 45.4213 48.1781 44.9113 47.9681 44.4213C49.6881 40.0113 48.7581 36.4713 48.7581 36.4713C48.5581 35.8513 48.3181 35.2513 48.0581 34.6513C49.6481 30.3613 48.7581 26.9413 48.7581 26.9413C46.5581 20.0713 40.1881 14.3713 34.0681 10.5613C29.0281 7.43129 26.7581 6.62129 25.2681 1.87129C25.2281 1.52129 25.1581 1.1713 25.0381 0.851297C25.0181 0.781297 24.9681 0.731304 24.9281 0.671304C24.9281 0.661304 24.9281 0.651284 24.9181 0.651284V0.661294C24.4581 0.0412942 23.1181 -0.118692 22.4181 0.0813076C21.8181 0.251308 21.8481 0.961289 21.8481 1.53129C21.8481 1.65129 21.8481 1.78129 21.8481 1.91129L21.7281 58.0713C18.4181 56.4213 13.3481 56.8813 8.57809 59.3613C1.94809 62.8113 -1.58192 69.1413 0.688079 73.5013C2.95808 77.8613 10.1681 78.6013 16.7981 75.1613C22.3281 72.2813 24.4781 67.5313 24.4581 63.4813V30.8413C26.0181 31.7613 26.1781 31.9413 28.6181 33.0613C37.3781 37.0713 47.5981 47.8013 44.0381 57.4813C43.5681 58.7713 42.0981 61.1913 41.4581 62.4013C39.9981 65.1513 43.7581 64.4113 45.2681 62.1913C48.6481 57.2313 50.3481 51.5713 48.5381 45.9313ZM28.8581 14.0513C38.0081 17.0513 44.1381 20.8813 45.5181 30.0513C45.5181 30.0513 45.5181 30.1313 45.5281 30.2713C42.5281 26.1513 38.2481 22.6813 34.0781 20.0913C29.9581 17.5313 27.5281 16.2913 25.9481 13.2913C26.6181 13.4913 27.4681 13.6013 28.8581 14.0513ZM33.8481 29.5613C30.6281 27.5613 27.3381 25.0913 24.8681 22.2913C25.7881 23.0213 26.6581 22.8713 28.8481 23.5913C37.9981 26.5913 44.1281 30.4213 45.5081 39.5913C45.5081 39.5913 45.5181 39.7813 45.5381 40.0913C42.5281 35.8113 38.1281 32.2213 33.8481 29.5613Z" fill="#ffffff"/>
</svg>
