<svg width="39" height="85" viewBox="0 0 39 85" fill="none" xmlns="http://www.w3.org/2000/svg">
<path d="M27.0614 68.46V0.549999C27.0614 0.249999 26.8113 0 26.5113 0H24.0814C23.7814 0 23.5314 0.249999 23.5314 0.549999V62.94C19.9414 61.16 14.4614 61.48 9.29137 64.17C2.11137 67.9 -1.70868 74.76 0.741325 79.48C3.20132 84.2 11.0014 85.01 18.1814 81.27C24.1714 78.15 27.0814 72.85 27.0614 68.46Z" fill="#ffffff"/>
<path d="M30 81.12C30 79.39 31.4 78 33.12 78C34.85 78 36.24 79.4 36.24 81.12C36.24 82.85 34.84 84.24 33.12 84.24C31.4 84.24 30 82.85 30 81.12Z" fill="#ffffff"/>
<line x1="12.6729" y1="28.055" x2="38.6729" y2="19.055" stroke="#ffffff" stroke-width="2"/>
<line x1="12.6729" y1="47.055" x2="38.6729" y2="38.055" stroke="#ffffff" stroke-width="2"/>
<line x1="12.6729" y1="37.055" x2="38.6729" y2="28.055" stroke="#ffffff" stroke-width="2"/>
</svg>
