<svg width="37" height="87" viewBox="0 0 37 87" fill="none" xmlns="http://www.w3.org/2000/svg">
<path d="M0.000102383 18.1621V86.0721C0.000102383 86.3721 0.25009 86.6221 0.55009 86.6221H2.98011C3.28011 86.6221 3.5301 86.3721 3.5301 86.0721V23.6821C7.1201 25.4621 12.6001 25.1421 17.7701 22.4521C24.9501 18.7221 28.7701 11.8621 26.3201 7.14213C23.8601 2.42213 16.0601 1.61212 8.88011 5.35212C2.89011 8.47212 -0.0198976 13.7721 0.000102383 18.1621Z" fill="#ffffff"/>
<path d="M30 3.12C30 1.39 31.4 0 33.12 0C34.85 0 36.24 1.4 36.24 3.12C36.24 4.85 34.84 6.23999 33.12 6.23999C31.4 6.23999 30 4.85 30 3.12Z" fill="#ffffff"/>
</svg>
