<svg width="50" height="87" viewBox="0 0 50 87" fill="none" xmlns="http://www.w3.org/2000/svg">
<path d="M13.0001 18.1621V86.0721C13.0001 86.3721 13.2501 86.6221 13.5501 86.6221H15.9801C16.2801 86.6221 16.5301 86.3721 16.5301 86.0721V23.6821C20.1201 25.4621 25.6001 25.1421 30.7701 22.4521C37.9501 18.7221 41.7701 11.8621 39.3201 7.14213C36.8601 2.42213 29.0601 1.61212 21.8801 5.35212C15.8901 8.47212 12.9801 13.7721 13.0001 18.1621Z" fill="#ffffff"/>
<path d="M43 3.12C43 1.39 44.4 0 46.12 0C47.85 0 49.24 1.4 49.24 3.12C49.24 4.85 47.84 6.23999 46.12 6.23999C44.4 6.23999 43 4.85 43 3.12Z" fill="#ffffff"/>
<line x1="0.672889" y1="49.055" x2="26.6729" y2="40.055" stroke="#ffffff" stroke-width="2"/>
<line x1="0.672889" y1="68.055" x2="26.6729" y2="59.055" stroke="#ffffff" stroke-width="2"/>
<line x1="0.672889" y1="58.055" x2="26.6729" y2="49.055" stroke="#ffffff" stroke-width="2"/>
</svg>
