<svg width="31" height="84" viewBox="0 0 31 84" fill="none" xmlns="http://www.w3.org/2000/svg">
<path d="M27.6502 29.7521C26.6102 27.2321 25.3302 24.7921 23.8302 22.5121C23.6202 22.2021 22.3702 19.9021 21.9302 19.9021C18.7402 19.9021 22.1402 25.2221 22.1402 25.2221C28.3102 38.4021 25.6102 51.1321 25.6102 51.1321C24.1102 61.0621 17.4802 65.2021 7.57021 68.4521C4.88021 69.3321 4.03021 69.0021 2.85021 70.2321L2.95021 20.8421C6.54021 22.6221 12.0202 22.1321 17.1902 19.4521C24.3702 15.7221 28.1902 8.86215 25.7402 4.14215C23.2802 -0.577852 15.4802 -1.38789 8.30021 2.35211C2.31021 5.46211 -0.0197858 10.6121 0.0102142 15.0021V80.9521C0.000214233 81.4421 0.000214243 81.9321 0.000214243 82.3421C0.000214243 82.9621 -0.0297858 83.4121 0.620214 83.6021C1.38021 83.8221 2.83021 83.6521 3.33021 82.9721V82.9821C3.33021 82.9721 3.33021 82.9621 3.34021 82.9521C3.39021 82.8921 3.43021 82.8221 3.46021 82.7521C3.59021 82.4121 3.66021 82.0222 3.71021 81.6422C5.32021 76.4922 7.78021 75.6121 13.2402 72.2321C20.0602 67.9921 26.4902 62.2621 29.1402 54.5021C29.2402 54.2021 29.3402 53.8921 29.4302 53.5821C31.7302 45.7821 30.7202 37.1821 27.6502 29.7521Z" fill="#ffffff"/>
</svg>
