<svg width="34" height="90" viewBox="0 0 34 90" fill="none" xmlns="http://www.w3.org/2000/svg">
<path d="M27.6402 35.96C26.6002 33.44 25.3202 31 23.8202 28.72C23.6102 28.41 22.3602 26.11 21.9302 26.11C18.7402 26.11 22.1402 31.43 22.1402 31.43C28.3102 44.61 25.6102 57.34 25.6102 57.34C24.1102 67.27 17.4802 71.41 7.57022 74.66C4.88022 75.54 4.03019 75.21 2.85019 76.44L2.95023 27.05C6.54023 28.83 12.0202 28.34 17.1902 25.66C24.3702 21.93 28.1902 15.07 25.7402 10.35C23.2802 5.63 15.4802 4.82002 8.3002 8.56002C2.3102 11.67 -0.0197759 16.82 0.0102241 21.21V87.15C0.000224107 87.64 0.000214341 88.14 0.000214341 88.54C0.000214341 89.16 -0.0297905 89.61 0.620209 89.8C1.38021 90.02 2.83017 89.85 3.33017 89.17V89.18C3.33017 89.17 3.33018 89.16 3.34018 89.15C3.39018 89.09 3.43018 89.02 3.46018 88.95C3.59018 88.61 3.66018 88.22 3.71018 87.84C5.32018 82.69 7.7802 81.81 13.2402 78.43C20.0602 74.19 26.4902 68.46 29.1402 60.7C29.2402 60.4 29.3402 60.09 29.4302 59.78C31.7302 51.99 30.7202 43.39 27.6402 35.96Z" fill="#ffffff"/>
<path d="M27.5603 3.12C27.5603 1.39 28.9603 0 30.6803 0C32.4103 0 33.8003 1.4 33.8003 3.12C33.8003 4.85 32.4003 6.23999 30.6803 6.23999C28.9603 6.23999 27.5603 4.85 27.5603 3.12Z" fill="#ffffff"/>
</svg>
