<svg width="42" height="84" viewBox="0 0 42 84" fill="none" xmlns="http://www.w3.org/2000/svg">
<path d="M38.6502 29.7521C37.6102 27.2321 36.3302 24.7921 34.8302 22.5121C34.6202 22.2021 33.3702 19.9021 32.9302 19.9021C29.7402 19.9021 33.1402 25.2221 33.1402 25.2221C39.3102 38.4021 36.6102 51.1321 36.6102 51.1321C35.1102 61.0621 28.4802 65.2021 18.5702 68.4521C15.8802 69.3321 15.0302 69.0021 13.8502 70.2321L13.9502 20.8421C17.5402 22.6221 23.0202 22.1321 28.1902 19.4521C35.3702 15.7221 39.1902 8.86215 36.7402 4.14215C34.2802 -0.577852 26.4802 -1.38789 19.3002 2.35211C13.3102 5.46211 10.9802 10.6121 11.0102 15.0021V80.9521C11.0002 81.4421 11.0002 81.9321 11.0002 82.3421C11.0002 82.9621 10.9702 83.4121 11.6202 83.6021C12.3802 83.8221 13.8302 83.6521 14.3302 82.9721V82.9821C14.3302 82.9721 14.3302 82.9621 14.3402 82.9521C14.3902 82.8921 14.4302 82.8221 14.4602 82.7521C14.5902 82.4121 14.6602 82.0222 14.7102 81.6422C16.3202 76.4922 18.7802 75.6121 24.2402 72.2321C31.0602 67.9921 37.4902 62.2621 40.1402 54.5021C40.2402 54.2021 40.3402 53.8921 40.4302 53.5821C42.7302 45.7821 41.7202 37.1821 38.6502 29.7521Z" fill="#ffffff"/>
<line x1="0.672889" y1="48.055" x2="26.6729" y2="39.055" stroke="#ffffff" stroke-width="2"/>
</svg>
