<svg width="53" height="84" viewBox="0 0 53 84" fill="none" xmlns="http://www.w3.org/2000/svg">
<path d="M34.1713 18.3945C31.3213 17.0045 29.4813 14.3245 28.4613 11.3945C28.0413 10.1745 27.7513 8.92447 27.5613 7.64447C27.4813 7.07447 27.4413 3.22447 27.4013 2.64447C27.3713 2.17447 27.4113 1.61449 27.2513 1.16449C26.9413 0.314493 25.1413 -0.185513 24.3013 0.0644871C23.6513 0.254487 23.6513 1.09446 23.6813 1.63446C23.7413 2.46446 23.7413 6.57449 23.7413 7.41449C23.7313 9.10449 23.7313 10.7945 23.7213 12.4845C23.7113 14.6945 23.7014 16.9045 23.7014 19.1145C23.6914 21.6645 23.6813 24.2045 23.6713 26.7545C23.6613 29.4545 23.6513 32.1545 23.6413 34.8545C23.6313 37.5245 23.6213 40.1845 23.6113 42.8545C23.6013 45.3045 23.5913 47.7545 23.5813 50.2045C23.5713 52.2545 23.5713 54.3045 23.5613 56.3545C23.5513 57.8245 23.5513 59.2845 23.5413 60.7545C23.5413 61.4545 23.5413 62.1545 23.5313 62.8545C23.5313 62.8645 23.5213 62.9545 23.5313 62.9545C19.9413 61.1745 14.4613 61.4945 9.29132 64.1845C2.11132 67.9145 -1.70867 74.7745 0.741331 79.4945C3.20133 84.2145 9.4013 85.2545 16.5813 81.5145C22.5713 78.4045 26.5013 73.0945 26.4713 68.7045V25.6345C35.2313 25.3645 43.3513 35.9645 43.3513 35.9645C51.5313 50.3645 38.2713 64.7045 38.2713 64.7045C37.3913 67.4245 39.1913 66.8545 39.1913 66.8545C43.8813 64.0245 49.3313 55.1145 49.3313 55.1145C61.9013 34.1545 34.1713 18.3945 34.1713 18.3945Z" fill="#ffffff"/>
</svg>
