<?xml version="1.0" encoding="utf-8"?>
<!-- Generator: Adobe Illustrator 24.1.2, SVG Export Plug-In . SVG Version: 6.00 Build 0)  -->
<svg version="1.1" id="Layer_2" xmlns="http://www.w3.org/2000/svg" xmlns:xlink="http://www.w3.org/1999/xlink" x="0px" y="0px"
	 viewBox="0 0 49.2 5.23" style="enable-background:new 0 0 49.2 5.23;" xml:space="preserve">
<style type="text/css">
	.st0{fill:#FFFFFF;}
</style>
<g>
	<path class="st0" d="M46.87,5.23c1.28,0,2.32-0.88,2.33-1.96l0-1.31C49.2,0.88,48.16,0,46.87,0L2.32,0C1.04,0,0,0.88,0,1.96l0,1.31
		c0,1.08,1.04,1.96,2.32,1.96L46.87,5.23z M37.88,1.07l6.54,0l0,3.21l-6.54,0l0-0.04l5.58-0.31l-0.04-2.5L37.88,1.07L37.88,1.07z
		 M23.07,2.61c0-0.71,0.57-1.28,1.28-1.28c0.71,0,1.28,0.57,1.28,1.28c0,0.71-0.57,1.28-1.28,1.28C23.64,3.89,23.07,3.32,23.07,2.61
		z M18.59,2.61c0-0.71,0.57-1.28,1.28-1.28c0.71,0,1.28,0.57,1.28,1.28c0,0.71-0.57,1.28-1.28,1.28
		C19.17,3.89,18.59,3.32,18.59,2.61z M14.11,2.61c0-0.71,0.57-1.28,1.28-1.28c0.71,0,1.28,0.57,1.28,1.28
		c0,0.71-0.57,1.28-1.28,1.28C14.69,3.89,14.12,3.32,14.11,2.61z M9.64,2.61c0-0.71,0.57-1.28,1.28-1.28c0.71,0,1.28,0.57,1.28,1.28
		c0,0.71-0.57,1.28-1.28,1.28C10.21,3.89,9.64,3.32,9.64,2.61z"/>
</g>
</svg>
