<?xml version="1.0" encoding="utf-8"?>
<!-- Generator: Adobe Illustrator 24.1.2, SVG Export Plug-In . SVG Version: 6.00 Build 0)  -->
<svg version="1.1" id="Layer_2" xmlns="http://www.w3.org/2000/svg" xmlns:xlink="http://www.w3.org/1999/xlink" x="0px" y="0px"
	 viewBox="0 0 29 24" style="enable-background:new 0 0 29 24;" xml:space="preserve">
<style type="text/css">
	.st0{fill:#FFFFFF;}
</style>
<g>
	<polygon class="st0" points="13.5,0 13.5,13 12,13 12,24 17,24 17,0 	"/>
	<polygon class="st0" points="3.5,13 3.5,0 0,0 0,24 5,24 5,13 	"/>
	<polygon class="st0" points="9.5,13 9.5,0 7.5,0 7.5,13 6,13 6,24 11,24 11,13 	"/>
	<polygon class="st0" points="25.5,0 25.5,13 24,13 24,24 29,24 29,0 	"/>
	<polygon class="st0" points="21.5,13 21.5,0 19.5,0 18,0 18,13 18,24 23,24 23,13 	"/>
</g>
</svg>
