<?xml version="1.0" encoding="utf-8"?>
<!-- Generator: Adobe Illustrator 24.1.2, SVG Export Plug-In . SVG Version: 6.00 Build 0)  -->
<svg version="1.1" id="Layer_2" xmlns="http://www.w3.org/2000/svg" xmlns:xlink="http://www.w3.org/1999/xlink" x="0px" y="0px"
	 viewBox="0 0 16.9 48.9" style="enable-background:new 0 0 16.9 48.9;" xml:space="preserve">
<style type="text/css">
	.st0{fill:#FFFFFF;}
</style>
<path class="st0" d="M15.96,36.46c-0.91-0.91,0-2.96,0-2.96l-0.23-0.45c-1.36,0.91-2.05-0.23-2.05-0.23
	c-1.36-2.05-0.45-4.55-0.45-4.55c0.68-0.91,1.59-0.23,1.59-0.23l0.23-0.45c-0.91-0.68-0.45-2.96-0.45-2.96
	c0.68-2.73-0.23-3.87-0.23-3.87c-1.14-2.5-4.55-2.5-4.55-2.5L9.26,5.53h0.57v0.22c0.04,0.01,0.3,0.24,0.34,0.24
	c0.44,0,0.8-0.36,0.8-0.8s-0.36-0.8-0.8-0.8c-0.04,0-0.3,0.23-0.34,0.24v0.22h-0.6L9.16,3.48h0.66V3.7c0.04,0.01,0.3,0.24,0.34,0.24
	c0.44,0,0.8-0.36,0.8-0.8s-0.36-0.8-0.8-0.8c-0.04,0-0.3,0.23-0.34,0.24V2.8H9.14v0.18L9.13,2.8l0.91-0.68L9.82,1.43L8.91,0.98V0.3
	L8.45,0L8,0.23v0.68L7.09,1.36L6.86,2.05l0.91,0.68L7.71,4.09H7.09V3.88c-0.04-0.01-0.3-0.24-0.34-0.24c-0.44,0-0.8,0.36-0.8,0.8
	s0.36,0.8,0.8,0.8c0.04,0,0.3-0.23,0.34-0.24V4.78h0.59L7.62,6.14H7.09V5.92c-0.04-0.01-0.3-0.24-0.34-0.24
	c-0.44,0-0.8,0.36-0.8,0.8s0.36,0.8,0.8,0.8c0.04,0,0.3-0.23,0.34-0.24V6.82h0.5L7.09,18.2c0,0-3.41,0-4.55,2.5
	c0,0-0.91,1.14-0.23,3.87c0,0,0.45,2.27-0.45,2.96l0.23,0.45c0,0,0.91-0.68,1.59,0.23c0,0,0.91,2.5-0.45,4.55
	c0,0-0.68,1.14-2.05,0.23l-0.23,0.45c0,0,0.91,2.05,0,2.96c0,0-2.27,3.41,0.23,6.14c0,0,2.05,2.96,7.28,2.96H7.82l0.45,3.41h0.18
	h0.18l0.45-3.39c4.39-0.38,6.65-2.91,6.65-2.91C18.23,39.87,15.96,36.46,15.96,36.46z"/>
</svg>
