<?xml version="1.0" encoding="utf-8"?>
<!-- Generator: Adobe Illustrator 24.1.2, SVG Export Plug-In . SVG Version: 6.00 Build 0)  -->
<svg version="1.1" id="Layer_2" xmlns="http://www.w3.org/2000/svg" xmlns:xlink="http://www.w3.org/1999/xlink" x="0px" y="0px"
	 viewBox="0 0 43.5 8.42" style="enable-background:new 0 0 43.5 8.42;" xml:space="preserve">
<style type="text/css">
	.st0{fill:#FFFFFF;}
</style>
<path class="st0" d="M43.5,7.56l-0.07-6.98c0-0.32-0.27-0.58-0.59-0.58c-0.16,0-0.3,0.06-0.41,0.17l-0.04,0.04
	C40.94,1.69,38.97,2,36.9,2.04L19.82,2.37L19.8,0.64c0-0.32-0.27-0.58-0.59-0.58c0,0,0,0,0,0l-4.97,0.04
	c-0.32,0-0.58,0.27-0.58,0.59c0,0,0,0,0,0l0.01,1.8L5.14,2.65L2.65,2.67c-0.04,0-0.08,0-0.11,0.01L0.47,3.11
	C0.19,3.17,0,3.41,0,3.69l0.02,1.42c0,0.28,0.2,0.52,0.48,0.57l2.08,0.4c0.04,0.01,0.08,0.01,0.12,0.01l2.48-0.02l17.66,0.08
	l0.01,1.69c0,0.32,0.27,0.58,0.59,0.58c0,0,0,0,0,0l4.97-0.04c0.32,0,0.58-0.27,0.58-0.59c0,0,0,0,0,0l-0.01-1.62l7.97,0.03
	c2.07,0,4.05,0.29,5.51,1.74l0.04,0.04c0.23,0.23,0.6,0.22,0.83-0.01C43.44,7.87,43.5,7.72,43.5,7.56z M18.64,1.23l0.01,1.16
	l-1.31,0.03l-0.01-1.17L18.64,1.23z M14.83,1.26l1.31-0.01l0.01,1.18l-1.31,0.03L14.83,1.26z M24.01,7.24L24,6.15l1.31,0.01
	l0.01,1.08L24.01,7.24z M26.49,7.22l-0.01-1.06l1.31,0.01l0.01,1.05L26.49,7.22z"/>
</svg>
