<?xml version="1.0" encoding="utf-8"?>
<!-- Generator: Adobe Illustrator 24.1.2, SVG Export Plug-In . SVG Version: 6.00 Build 0)  -->
<svg version="1.1" id="Layer_2" xmlns="http://www.w3.org/2000/svg" xmlns:xlink="http://www.w3.org/1999/xlink" x="0px" y="0px"
	 viewBox="0 0 20.12 26.75" style="enable-background:new 0 0 20.12 26.75;" xml:space="preserve">
<style type="text/css">
	.st0{fill:#FFFFFF;}
</style>
<g>
	<path class="st0" d="M10.06,13.79c-1.6,0-2.91,1.3-2.91,2.91c0,1.6,1.3,2.91,2.91,2.91s2.91-1.3,2.91-2.91
		C12.96,15.09,11.66,13.79,10.06,13.79z"/>
	<path class="st0" d="M15.34,8.14l-3.95-7.3c-0.38-0.57-0.81-0.86-1.3-0.85C9.33,0.02,8.87,0.78,8.81,0.88L4.79,8.13
		C1.92,9.91,0,13.07,0,16.69c0,5.55,4.5,10.06,10.06,10.06s10.06-4.5,10.06-10.06C20.12,13.08,18.2,9.92,15.34,8.14z M9.68,1.37
		C9.77,1.22,9.98,1,10.12,1c0,0,0,0,0,0c0.09,0,0.25,0.1,0.42,0.36l3.24,5.99c-1.15-0.46-2.4-0.72-3.72-0.72
		c-1.3,0-2.54,0.26-3.68,0.71L9.68,1.37z M10.06,20.6c-2.16,0-3.91-1.75-3.91-3.91c0-2.16,1.75-3.91,3.91-3.91s3.91,1.75,3.91,3.91
		C13.96,18.85,12.21,20.6,10.06,20.6z"/>
</g>
</svg>
