<?xml version="1.0" encoding="utf-8"?>
<!-- Generator: Adobe Illustrator 24.1.2, SVG Export Plug-In . SVG Version: 6.00 Build 0)  -->
<svg version="1.1" id="Layer_2" xmlns="http://www.w3.org/2000/svg" xmlns:xlink="http://www.w3.org/1999/xlink" x="0px" y="0px"
	 viewBox="0 0 32.55 30.8" style="enable-background:new 0 0 32.55 30.8;" xml:space="preserve">
<style type="text/css">
	.st0{fill:#FFFFFF;}
</style>
<path class="st0" d="M31.46,25.61c-0.07,0-0.14,0.01-0.21,0.02l-1.19,0.24c-0.43,0.09-0.8,0.34-1.04,0.71h-3.69
	c2.2-2.14,3.43-5.07,3.42-8.14c-0.01-6.29-5.1-11.38-11.39-11.39c-3.06-0.01-6,1.22-8.14,3.42V9.76c0-4.63,3.32-6.26,3.9-6.51h0.44
	c0.43,0,0.84-0.17,1.14-0.47c0.31-0.3,0.49-0.72,0.48-1.15c0-0.9-0.73-1.63-1.63-1.63H1.63C1.2,0,0.79,0.17,0.48,0.47
	C0.17,0.78,0,1.19,0,1.63c0,0.9,0.73,1.63,1.63,1.63h0.43c0.55,0.24,3.91,1.9,3.91,6.51v9.22c0,0.05,0.01,0.09,0.03,0.14
	c0.35,6.02,5.34,10.72,11.36,10.71h11.66c0.24,0.36,0.61,0.62,1.04,0.71l1.19,0.24c0.07,0.01,0.14,0.02,0.21,0.02
	c0.6,0,1.08-0.49,1.08-1.09V26.7C32.55,26.1,32.06,25.61,31.46,25.61z M14.65,18.98v2.17h-1.08v-2.17H14.65z M13.56,17.9v-2.17h1.08
	v2.17H13.56z M14.65,22.24L14.65,22.24c0,1.5,1.21,2.71,2.71,2.71c1.5,0,2.71-1.21,2.71-2.71h1.08c0,0.3,0.24,0.54,0.54,0.54
	c0.3,0,0.54-0.24,0.54-0.54v-1.08c0-0.3-0.24-0.54-0.54-0.54c-0.3,0-0.54,0.24-0.54,0.54h-1.08v-2.17h1.08
	c0,0.3,0.24,0.54,0.54,0.54c0.3,0,0.54-0.24,0.54-0.54V17.9c0-0.3-0.24-0.54-0.54-0.54c-0.3,0-0.54,0.24-0.54,0.54h-1.08v-2.17h1.08
	c0,0.3,0.24,0.54,0.54,0.54c0.3,0,0.54-0.24,0.54-0.54v-1.08c0-0.3-0.24-0.54-0.54-0.54c-0.3,0-0.54,0.24-0.54,0.54h-1.08
	c0-1.5-1.21-2.71-2.71-2.71c-1.5,0-2.71,1.21-2.71,2.71h-1.08v-3.39c3.97-2.1,8.9-0.59,11,3.38c2.1,3.97,0.59,8.9-3.38,11
	c-2.38,1.26-5.23,1.26-7.61,0v-3.39H14.65z M18.98,15.73v2.17h-3.25v-2.17H18.98z M15.73,14.65c0-0.9,0.73-1.63,1.63-1.63
	c0.9,0,1.63,0.73,1.63,1.63H15.73z M18.98,18.98v2.17h-3.25v-2.17H18.98z M18.98,22.24c0,0.9-0.73,1.63-1.63,1.63
	c-0.9,0-1.63-0.73-1.63-1.63H18.98z M10.31,14.4v8.08c-0.71-1.23-1.08-2.62-1.08-4.04C9.22,17.02,9.6,15.63,10.31,14.4z"/>
</svg>
