<?xml version="1.0" encoding="utf-8"?>
<!-- Generator: Adobe Illustrator 24.1.2, SVG Export Plug-In . SVG Version: 6.00 Build 0)  -->
<svg version="1.1" id="Layer_2" xmlns="http://www.w3.org/2000/svg" xmlns:xlink="http://www.w3.org/1999/xlink" x="0px" y="0px"
	 viewBox="0 0 30.87 25.49" style="enable-background:new 0 0 30.87 25.49;" xml:space="preserve">
<style type="text/css">
	.st0{fill:#FFFFFF;}
</style>
<g>
	<path class="st0" d="M26.71,14.22h-2.23c0.23,0.62,0.35,1.3,0.35,2v8.44c0,0.29-0.05,0.57-0.14,0.83h3.69c1.38,0,2.5-1.12,2.5-2.5
		v-4.6C30.87,16.09,29,14.22,26.71,14.22z"/>
	<path class="st0" d="M6.4,14.22H4.17c-2.3,0-4.17,1.87-4.17,4.17v4.6c0,1.38,1.12,2.5,2.5,2.5h3.69c-0.09-0.26-0.14-0.54-0.14-0.83
		v-8.44C6.05,15.52,6.17,14.85,6.4,14.22z"/>
	<path class="st0" d="M17.99,12.05h-5.1c-2.3,0-4.17,1.87-4.17,4.17v8.44c0,0.46,0.37,0.83,0.83,0.83h11.77
		c0.46,0,0.83-0.37,0.83-0.83v-8.44C22.16,13.92,20.29,12.05,17.99,12.05z"/>
	<path class="st0" d="M12.99,9.38c0.72,0.41,1.56,0.64,2.45,0.64s1.72-0.23,2.45-0.64c1.53-0.86,2.56-2.5,2.56-4.37
		C20.45,2.25,18.2,0,15.44,0c-2.76,0-5.01,2.25-5.01,5.01C10.42,6.89,11.46,8.52,12.99,9.38z"/>
	<path class="st0" d="M8.94,10.18c0.28-0.53,0.44-1.12,0.44-1.76c0-2.07-1.68-3.75-3.75-3.75c-2.07,0-3.75,1.68-3.75,3.75
		c0,2.07,1.68,3.75,3.75,3.75c0.52,0,1.02-0.11,1.48-0.3C7.9,11.53,8.54,10.93,8.94,10.18z"/>
	<path class="st0" d="M28.99,8.42c0-2.07-1.68-3.75-3.75-3.75c-2.07,0-3.75,1.68-3.75,3.75c0,0.64,0.16,1.24,0.44,1.76
		c0.4,0.75,1.05,1.35,1.83,1.68c0.45,0.2,0.95,0.3,1.48,0.3C27.31,12.17,28.99,10.49,28.99,8.42z"/>
</g>
</svg>
