<?xml version="1.0" encoding="utf-8"?>
<!-- Generator: Adobe Illustrator 24.1.2, SVG Export Plug-In . SVG Version: 6.00 Build 0)  -->
<svg version="1.1" id="Layer_2" xmlns="http://www.w3.org/2000/svg" xmlns:xlink="http://www.w3.org/1999/xlink" x="0px" y="0px"
	 viewBox="0 0 16.84 46.87" style="enable-background:new 0 0 16.84 46.87;" xml:space="preserve">
<style type="text/css">
	.st0{fill:#FFFFFF;}
</style>
<path class="st0" d="M15.73,33.49c-1.31,0.13-2.05-0.73-2.05-0.73c-1.36-2.05-0.45-4.55-0.45-4.55c0.62-1.33,1.82-1.19,1.82-1.19
	s0.73-3-0.68-5.81c-1.1-2.19-3.77-2.29-4.55-4.02L9.32,6.82l0.72-0.63L10.02,5.6L9.75,5.34L9.73,5l0.25-0.26L9.96,4.2L9.54,3.82
	l-0.41-1.1l0.56-0.42L9.55,1.23L8.91,0.91V0.23L8.45,0L8.42,0.02L8.39,0L7.94,0.23v0.68L7.29,1.23L7.15,2.31l0.56,0.42L7.3,3.82
	L6.89,4.2L6.86,4.74L7.11,5L7.09,5.34L6.83,5.6L6.8,6.19l0.72,0.63l-0.5,10.36c-0.78,1.73-3.45,1.83-4.55,4.02
	c-1.41,2.81-0.68,5.81-0.68,5.81s1.2-0.14,1.82,1.19c0,0,0.91,2.5-0.45,4.55c0,0-0.73,0.87-2.05,0.73c0,0-2.5,6.32,0,9.05
	c0,0,2.44,2.68,6.65,2.96l0.45,1.38h0.18h0.03h0.03h0.18l0.45-1.38c4.21-0.27,6.65-2.96,6.65-2.96
	C18.23,39.8,15.73,33.49,15.73,33.49z"/>
</svg>
