<?xml version="1.0" encoding="utf-8"?>
<!-- Generator: Adobe Illustrator 24.1.2, SVG Export Plug-In . SVG Version: 6.00 Build 0)  -->
<svg version="1.1" xmlns="http://www.w3.org/2000/svg" xmlns:xlink="http://www.w3.org/1999/xlink" x="0px" y="0px"
	 viewBox="0 0 21.1 27.9" style="enable-background:new 0 0 21.1 27.9;" xml:space="preserve">
<style type="text/css">
	.st0{fill:#FFFFFF;}
</style>
<g id="Layer_1">
</g>
<g id="Layer_2">
	<g>
		<path class="st0" d="M13.57,17.69c0.46-0.57,0.87-1.17,1.21-1.82c0.39-0.74,0.7-1.52,0.96-2.31c0.11-0.35,0.2-0.7,0.29-1.06
			c-1.47,0.42-3.17,0.68-5.08,0.71l-0.23,5.21C11.66,18.4,12.62,18.09,13.57,17.69z"/>
		<path class="st0" d="M10.52,12.36c5.31,0,9.24-1.93,10.34-3.99c0.15-0.82,0.24-1.66,0.24-2.52c0-0.98-0.42-1.91-1.2-2.74
			c-1.03-1.04-2.37-1.7-3.35-2.08C14.79,0.36,12.73,0,10.55,0C8.93,0,7.35,0.21,5.9,0.6C5.81,0.63,5.73,0.65,5.65,0.68
			C5.21,0.8,4.79,0.94,4.39,1.09c-0.78,0.3-1.38,0.6-1.84,0.88l0.01,0.01C0.91,3.03,0,4.39,0,5.84c0,0.92,0.09,1.82,0.26,2.68
			C1.48,10.53,5.35,12.36,10.52,12.36z M2.67,4.32L2.67,4.32c0,0,0.21-0.25,0.72-0.6c0.13-0.09,0.25-0.17,0.36-0.23L3.93,3.4
			c0.48-0.26,1.13-0.54,1.97-0.8c0.74-0.23,1.53-0.42,2.38-0.53c0.04-0.01,0.07-0.01,0.11-0.02L8.4,2.06
			c0.7-0.09,1.42-0.14,2.15-0.14c1.14,0,2.27,0.12,3.32,0.33c0,0,0.53,0.1,1.25,0.32c0.03,0.01,0.06,0.02,0.09,0.02l0,0
			c0.59,0.18,1.28,0.44,1.93,0.79l0,0c0.02,0.01,0.04,0.03,0.07,0.04c0.4,0.22,0.77,0.48,1.08,0.77c0.04,0.03,0.07,0.07,0.11,0.1
			c0.01,0.01,0.02,0.01,0.02,0.02l0,0c0.49,0.49,0.76,1.02,0.76,1.52c0,1.8-3.47,3.73-8.63,3.73S1.92,7.64,1.92,5.84
			C1.92,5.25,2.25,4.74,2.67,4.32z"/>
		<path class="st0" d="M13.89,18.29c-0.99,0.57-2.14,1.01-3.38,1.02c-1.23-0.01-2.38-0.45-3.38-1.03c-0.37-0.2-0.71-0.43-1.05-0.66
			c-0.86,1.61-1.4,3.67-1.4,5.9c0,1.09,0.51,2.11,1.42,2.89l-0.01,0.01c0.25,0.21,0.59,0.44,1.02,0.66c0.22,0.12,0.46,0.22,0.7,0.31
			c0.05,0.02,0.09,0.04,0.14,0.06c0.8,0.29,1.68,0.45,2.58,0.45c1.21,0,2.35-0.27,3.33-0.77c0.54-0.29,1.28-0.78,1.86-1.56
			c0.43-0.62,0.67-1.32,0.67-2.05c0-2.24-0.54-4.31-1.42-5.93C14.63,17.84,14.27,18.08,13.89,18.29z"/>
		<path class="st0" d="M16.91,12.23c-0.17,0.53-0.35,1.06-0.56,1.57c-0.34,0.8-0.73,1.57-1.19,2.3c-0.31,0.48-0.66,0.92-1.03,1.35
			c0.21-0.09,0.42-0.19,0.63-0.28c0-0.01-0.01-0.02-0.01-0.02c0.41-0.21,0.8-0.46,1.18-0.73l1.46-1.24
			c1.29-1.31,2.31-2.98,2.96-4.85C19.48,11.06,18.34,11.72,16.91,12.23z"/>
		<path class="st0" d="M6.37,17.14c-0.01,0.01-0.02,0.03-0.02,0.04c0.26,0.12,0.51,0.23,0.76,0.35c-0.4-0.45-0.78-0.92-1.11-1.43
			c-0.46-0.73-0.85-1.5-1.19-2.3c-0.21-0.5-0.39-1.01-0.55-1.53c-1.43-0.49-2.59-1.14-3.46-1.87c0.65,1.84,1.65,3.48,2.93,4.77
			l1.46,1.24C5.56,16.68,5.96,16.92,6.37,17.14z"/>
		<path class="st0" d="M5.41,13.57c0.26,0.79,0.57,1.57,0.96,2.31c0.35,0.66,0.77,1.29,1.26,1.88c0.89,0.37,1.8,0.65,2.71,0.68
			l-0.23-5.21c-1.86-0.03-3.52-0.28-4.96-0.68C5.22,12.88,5.3,13.23,5.41,13.57z"/>
	</g>
</g>
</svg>
