<?xml version="1.0" encoding="utf-8"?>
<!-- Generator: Adobe Illustrator 24.1.2, SVG Export Plug-In . SVG Version: 6.00 Build 0)  -->
<svg version="1.1" id="Layer_2" xmlns="http://www.w3.org/2000/svg" xmlns:xlink="http://www.w3.org/1999/xlink" x="0px" y="0px"
	 viewBox="0 0 23.13 30.84" style="enable-background:new 0 0 23.13 30.84;" xml:space="preserve">
<style type="text/css">
	.st0{fill:#FFFFFF;}
</style>
<g>
	<g>
		<path class="st0" d="M22.65,0.03c-0.28-0.08-0.58,0.06-0.73,0.32c-0.01,0.02-1.3,2.23-7.14,2.23c-3.61,0-5.27-0.82-6.73-1.55
			C6.98,0.5,5.98,0,4.5,0C0.94,0,0,3.78,0,5.78c0,0.26,0.16,0.49,0.4,0.59c0.24,0.1,0.52,0.04,0.7-0.14
			c0.17-0.17,0.34-0.32,0.5-0.46L7.36,28.9c0.29,1.15,1.31,1.95,2.49,1.95h4.92c0.36,0,0.64-0.29,0.64-0.64
			c0-2.32,1.16-4.11,1.16-4.11c5.37-7.16,5.34-17.33,5.28-19.34c0.76-0.45,1.27-1.27,1.27-2.19V0.64
			C23.13,0.35,22.93,0.1,22.65,0.03z M5.02,4.55c1.13,0.11,1.89,0.55,2.76,1.11l-1.4,3.82L5.02,4.55z M6.97,11.6L8.9,6.34
			c0.75,0.42,1.67,0.82,2.9,1.08l-3.47,9.13L6.97,11.6z M8.91,18.65L13.1,7.62c0.52,0.05,1.06,0.09,1.68,0.09
			c0.57,0,1.11-0.02,1.63-0.04l-6.29,15.39L8.91,18.65z M13.5,22.49l-0.1,0.15c-0.15,0.23-0.87,1.36-1.36,3.07h-0.69
			c-0.29,0-0.54-0.19-0.62-0.47l-0.04-0.14l7.15-17.5c0.06,0,0.12-0.01,0.18-0.01C18.04,9.47,17.86,16.67,13.5,22.49z"/>
	</g>
</g>
</svg>
