<?xml version="1.0" encoding="utf-8"?>
<!-- Generator: Adobe Illustrator 24.1.2, SVG Export Plug-In . SVG Version: 6.00 Build 0)  -->
<svg version="1.1" id="Layer_2" xmlns="http://www.w3.org/2000/svg" xmlns:xlink="http://www.w3.org/1999/xlink" x="0px" y="0px"
	 viewBox="0 0 24.17 20.86" style="enable-background:new 0 0 24.17 20.86;" xml:space="preserve">
<style type="text/css">
	.st0{fill:#FFFFFF;}
</style>
<path class="st0" d="M18.63,1.06c-0.33-0.11-0.65-0.23-0.99-0.33c-0.05-0.01-0.09-0.03-0.13-0.04C15.84,0.24,14,0,12.09,0
	c-1.89,0-3.73,0.25-5.4,0.71c-0.02,0-0.04,0.01-0.06,0.01c-0.55,0.15-1.09,0.33-1.6,0.53l0,0C4.17,1.58,3.46,1.94,2.94,2.27l0,0
	C1.05,3.47,0,5.03,0,6.7c0,4.21,1.67,8.06,4.26,10.68l1.68,1.43c1.82,1.29,3.92,2.06,6.15,2.06c2.23,0,4.33-0.76,6.15-2.06
	l1.68-1.43c2.59-2.62,4.26-6.47,4.26-10.68c0-0.89-0.3-1.74-0.87-2.53C22.09,2.56,20.03,1.58,18.63,1.06z M12.09,10.97
	c-5.92,0-9.89-2.21-9.89-4.27c0-0.83,0.57-1.53,1.18-2.05l0,0c0,0,0.97-1.15,4.34-1.95c0.17-0.04,0.33-0.08,0.5-0.11
	c0.19-0.04,0.38-0.08,0.59-0.12l0.03,0.01C9.88,2.3,10.97,2.2,12.09,2.2c1.57,0,3.1,0.2,4.49,0.54l0.01-0.01
	c0,0,1.58,0.33,3.06,1.13l0,0c0.42,0.23,0.78,0.48,1.09,0.74c0.02,0.01,0.04,0.03,0.05,0.04l0,0c0.77,0.65,1.19,1.36,1.19,2.04
	C21.98,8.76,18,10.97,12.09,10.97z"/>
</svg>
