<?xml version="1.0" encoding="utf-8"?>
<!-- Generator: Adobe Illustrator 24.1.2, SVG Export Plug-In . SVG Version: 6.00 Build 0)  -->
<svg version="1.1" id="Layer_2" xmlns="http://www.w3.org/2000/svg" xmlns:xlink="http://www.w3.org/1999/xlink" x="0px" y="0px"
	 viewBox="0 0 15.65 45.51" style="enable-background:new 0 0 15.65 45.51;" xml:space="preserve">
<style type="text/css">
	.st0{fill:#FFFFFF;}
</style>
<path class="st0" d="M8.81,3.55C8.8,3.46,8.8,3.41,8.79,3.39c-0.03-0.05-0.14-0.11-0.3-0.15c0.04-0.29,0.1-0.66,0.15-1.03
	c0.83-0.19,1.03-0.7,0.09-0.93c0.01-0.21,0-0.36-0.03-0.42C8.66,0.79,8.52,0.75,8.33,0.73C8.26,0.38,8.09,0,7.69,0
	C7.22,0,7.12,0.47,7.1,0.82C6.91,0.86,6.77,0.91,6.74,0.95C6.71,0.99,6.71,1.12,6.72,1.3c-0.62,0.2-0.65,0.58,0.1,0.81
	c0.06,0.41,0.13,0.84,0.19,1.13C6.9,3.3,6.82,3.38,6.79,3.48C6.77,3.54,6.75,3.73,6.72,4.01c-0.4-0.25-1.85-1.07-2.3,0.11
	C3.92,5.41,5.79,5.47,6.63,5.21C6.61,5.45,6.6,5.71,6.58,5.98C6.01,5.67,4.91,5.24,4.52,6.24C4.07,7.42,5.59,7.57,6.5,7.38
	c-0.18,3.22-0.38,7.53-0.46,9.42c-4.81,0.49-4.86,4.4-4.43,6.4c0.48,2.23-0.14,3.38-0.05,3.69c0.08,0.31,2.99,0.48,2.2,3.27
	c-0.79,2.79-2.34,1.95-2.84,2.34c-0.51,0.4,0.28,1.27,0.28,1.27s-3.23,5.64,0.94,9.47c4.17,3.83,10.28,2.49,12.9-1.54
	c1.46-2.24-0.15-7.89-0.15-7.89s0.17-0.37,0.11-1.18c-0.06-0.82-2.73-0.25-2.91-3.12s1.97-2.68,2.11-2.82
	c0.14-0.14-0.68-0.65,0-2.68c0.62-1.86,0.35-6.06-4.83-7.04C9.29,14.89,9.12,9.98,8.97,6.67c0.64,0.15,1.75,0.26,1.72-0.78
	c-0.03-1.03-1.13-0.68-1.77-0.38C8.91,5.2,8.89,4.92,8.88,4.68c0.63,0.15,1.8,0.3,1.77-0.77C10.62,2.84,9.45,3.25,8.81,3.55z"/>
</svg>
