<?xml version="1.0" encoding="utf-8"?>
<!-- Generator: Adobe Illustrator 24.1.2, SVG Export Plug-In . SVG Version: 6.00 Build 0)  -->
<svg version="1.1" id="Layer_2" xmlns="http://www.w3.org/2000/svg" xmlns:xlink="http://www.w3.org/1999/xlink" x="0px" y="0px"
	 viewBox="0 0 34.82 19.87" style="enable-background:new 0 0 34.82 19.87;" xml:space="preserve">
<style type="text/css">
	.st0{fill:#FFFFFF;}
</style>
<path class="st0" d="M33.89,0c-0.51,0-0.93,0.41-0.93,0.93v0.26c-2.88,3.73-7.68,4.59-10.91,4.61v0h-1.59V3.24
	c0.26-0.04,0.46-0.26,0.46-0.53c0-0.3-0.24-0.54-0.54-0.54h-0.93c-0.3,0-0.54,0.24-0.54,0.54c0,0.27,0.2,0.5,0.46,0.53v2.56h-1.92
	V3.24c0.26-0.04,0.46-0.26,0.46-0.53c0-0.3-0.24-0.54-0.54-0.54h-0.93c-0.3,0-0.54,0.24-0.54,0.54c0,0.27,0.2,0.5,0.46,0.53v2.56
	h-1.92V3.24c0.26-0.04,0.46-0.26,0.46-0.53c0-0.3-0.24-0.54-0.54-0.54h-0.93c-0.3,0-0.54,0.24-0.54,0.54c0,0.27,0.2,0.5,0.46,0.53
	v2.56H6.14c-1.69,0-3.38-0.13-5.06-0.38V4.87c0-0.3-0.24-0.54-0.54-0.54C0.24,4.33,0,4.57,0,4.87v3.71c0,0.3,0.24,0.54,0.54,0.54
	c0.3,0,0.54-0.24,0.54-0.54V8.03c1.67-0.25,3.36-0.38,5.06-0.38h1.08c-1.4,1.29-2.28,3.13-2.28,5.18c0,3.88,3.15,7.03,7.03,7.03
	h9.94c3.88,0,7.03-3.14,7.03-7.02c0-1.57-0.53-3.1-1.5-4.34c2.17,0.67,4.09,1.98,5.51,3.76v0.26c0,0.51,0.41,0.93,0.93,0.93
	c0.51,0,0.93-0.41,0.93-0.93v-0.26V1.18V0.93C34.82,0.41,34.4,0,33.89,0z M21.91,18.01h-9.94c-2.86,0-5.18-2.32-5.18-5.18
	s2.32-5.18,5.18-5.18h1.42v4.76c0,0.3,0.24,0.54,0.54,0.54c0,0,0,0,0,0c0.3,0,0.54-0.24,0.54-0.54V7.65h1.92v4.76
	c0,0.3,0.24,0.54,0.54,0.54c0,0,0,0,0,0c0.3,0,0.54-0.24,0.54-0.54V7.65h1.92v4.76c0,0.3,0.24,0.54,0.54,0.54c0,0,0,0,0,0
	c0.3,0,0.54-0.24,0.54-0.54V7.65h1.45c2.86,0,5.18,2.32,5.18,5.18S24.78,18.01,21.91,18.01z"/>
</svg>
