<?xml version="1.0" encoding="utf-8"?>
<!-- Generator: Adobe Illustrator 24.1.2, SVG Export Plug-In . SVG Version: 6.00 Build 0)  -->
<svg version="1.1" id="Layer_1" xmlns="http://www.w3.org/2000/svg" xmlns:xlink="http://www.w3.org/1999/xlink" x="0px" y="0px"
	 viewBox="0 0 15.98 19.49" style="enable-background:new 0 0 15.98 19.49;" xml:space="preserve">
<style type="text/css">
	.st0{fill:#FFFFFF;}
</style>
<path class="st0" d="M15.98,14.69V0L4.79,3.73v9.8c-1.25-0.72-2.83-0.52-3.85,0.5c-1.02,1.02-1.24,2.59-0.53,3.85
	c0.71,1.25,2.18,1.88,3.57,1.52c1.4-0.36,2.38-1.61,2.4-3.05h0v-0.03c0,0,0-0.01,0-0.02s0-0.01,0-0.02V6.83l7.99-2.66v7.76
	c-1.25-0.72-2.83-0.51-3.86,0.51s-1.23,2.61-0.51,3.86c0.72,1.25,2.2,1.86,3.59,1.49C15.01,17.4,15.98,16.14,15.98,14.69
	L15.98,14.69z"/>
</svg>
