<?xml version="1.0" encoding="utf-8"?>
<!-- Generator: Adobe Illustrator 24.1.2, SVG Export Plug-In . SVG Version: 6.00 Build 0)  -->
<svg version="1.1" id="Layer_1" xmlns="http://www.w3.org/2000/svg" xmlns:xlink="http://www.w3.org/1999/xlink" x="0px" y="0px"
	 viewBox="0 0 29.33 24" style="enable-background:new 0 0 29.33 24;" xml:space="preserve">
<style type="text/css">
	.st0{fill:#FFFFFF;}
</style>
<path class="st0" d="M0,0v24h29.33V0H0z M9.49,1.56c0.48,0,0.87,0.39,0.87,0.87c0,0.48-0.39,0.87-0.87,0.87S8.62,2.91,8.62,2.43
	C8.62,1.95,9.01,1.56,9.49,1.56z M6.07,1.56c0.48,0,0.87,0.39,0.87,0.87c0,0.48-0.39,0.87-0.87,0.87S5.2,2.91,5.2,2.43
	C5.2,1.95,5.59,1.56,6.07,1.56z M2.65,1.56c0.48,0,0.87,0.39,0.87,0.87c0,0.48-0.39,0.87-0.87,0.87S1.78,2.91,1.78,2.43
	C1.78,1.95,2.17,1.56,2.65,1.56z M28.02,13.21v1v8.58h-8.58h-1h-7.58h-1H1.28v-8.58v-1V4.63h8.58h1h7.58h1h8.58V13.21z"/>
</svg>
