<?xml version="1.0" encoding="UTF-8" standalone="no"?>
<svg
   xmlns:dc="http://purl.org/dc/elements/1.1/"
   xmlns:cc="http://creativecommons.org/ns#"
   xmlns:rdf="http://www.w3.org/1999/02/22-rdf-syntax-ns#"
   xmlns:svg="http://www.w3.org/2000/svg"
   xmlns="http://www.w3.org/2000/svg"
   xmlns:sodipodi="http://sodipodi.sourceforge.net/DTD/sodipodi-0.dtd"
   xmlns:inkscape="http://www.inkscape.org/namespaces/inkscape"
   xml:space="preserve"
   style="enable-background:new 0 0 787.78 203.5;"
   viewBox="0 0 787.78 203.5"
   y="0px"
   x="0px"
   id="Layer_1"
   version="1.1"
   sodipodi:docname="instrumentsection.svg"
   inkscape:version="0.92.5 (2060ec1f9f, 2020-04-08)"><sodipodi:namedview
   pagecolor="#ffffff"
   bordercolor="#666666"
   borderopacity="1"
   objecttolerance="10"
   gridtolerance="10"
   guidetolerance="10"
   inkscape:pageopacity="0"
   inkscape:pageshadow="2"
   inkscape:window-width="3706"
   inkscape:window-height="2049"
   id="namedview29"
   showgrid="false"
   inkscape:zoom="3.5542917"
   inkscape:cx="420.7525"
   inkscape:cy="132.42029"
   inkscape:window-x="134"
   inkscape:window-y="55"
   inkscape:window-maximized="1"
   inkscape:current-layer="g71" /><metadata
   id="metadata78"><rdf:RDF><cc:Work
       rdf:about=""><dc:format>image/svg+xml</dc:format><dc:type
         rdf:resource="http://purl.org/dc/dcmitype/StillImage" /><dc:title /></cc:Work></rdf:RDF></metadata><defs
   id="defs76" />
<style
   id="style2"
   type="text/css">
	.st0{fill:#C9C7C8;}
	.st1{opacity:0.15;fill:#FFFFFF;}
	.st2{opacity:0.15;fill:url(#SVGID_1_);}
	.st3{opacity:0.15;fill:url(#SVGID_2_);}
	.st4{opacity:0.15;fill:url(#SVGID_3_);}
	.st5{fill:#EDE7E7;}
	.st6{fill:#E0DADA;}
	.st7{opacity:0.1;}
	.st8{opacity:0.07;}
</style>
<g
   id="g71">
	
	
	<linearGradient
   y2="46.6354"
   x2="371.6435"
   y1="46.6354"
   x1="257.0631"
   gradientUnits="userSpaceOnUse"
   id="SVGID_1_">
		<stop
   id="stop8"
   style="stop-color:#000000"
   offset="0" />
		<stop
   id="stop10"
   style="stop-color:#000000;stop-opacity:0"
   offset="1" />
	</linearGradient>
	
	<linearGradient
   y2="140.76"
   x2="204.7837"
   y1="140.76"
   x1="129.5128"
   gradientUnits="userSpaceOnUse"
   id="SVGID_2_">
		<stop
   id="stop15"
   style="stop-color:#000000"
   offset="0" />
		<stop
   id="stop17"
   style="stop-color:#000000;stop-opacity:0"
   offset="1" />
	</linearGradient>
	
	
		<linearGradient
   gradientTransform="matrix(-1 0 0 1 8812.6084 0)"
   y2="140.76"
   x2="8186.7432"
   y1="140.76"
   x1="8111.4722"
   gradientUnits="userSpaceOnUse"
   id="SVGID_3_">
		<stop
   id="stop22"
   style="stop-color:#000000"
   offset="0" />
		<stop
   id="stop24"
   style="stop-color:#000000;stop-opacity:0"
   offset="1" />
	</linearGradient>
	
	<path
   id="violin-1"
   d="M129.51,203.5h146.15l0,0c2-6.14,5.33-12,9.82-17.47l0.03-0.03l-122.09-19.97l0,0   C149.79,177.53,138.36,190.1,129.51,203.5L129.51,203.5z"
   class="st5" />
	<path
   id="viola"
   d="M485.89,122.48l-36.39,31.72l0-0.01c-16.72-5.23-35.77-8.19-56-8.19c-20.21,0-39.26,2.96-55.97,8.18l0,0.01   l-35.75-31.74l0,0c28.41-7.9,59.35-12.24,91.72-12.24c32.69,0,63.86,4.25,92.5,12.3L485.89,122.48z"
   class="st5" />
	<path
   id="cello"
   d="M485.89,122.48l30.44-26.53l0,0c79.23,19.88,144.81,58.27,184.8,107.25v0.3H511.06H511   c-6-21-30.29-39.55-61.5-49.31l0,0.01L485.89,122.48z"
   class="st6" />
	
	<path
   id="harp"
   d="M0,143.5h129.51l0-0.01c8.84-13.39,20.28-25.96,33.92-37.47l0,0L65.45,89.99l0-0.01   C40.89,106.21,18.73,123.98,0,143.5L0,143.5z"
   class="st6" />
	<path
   id="path39"
   d="M163.43,106.02L65.45,89.99l0-0.01c20.72-13.69,43.34-26.09,67.57-37l0,0l71.76,25.03l0,0   C189.44,86.4,175.56,95.79,163.43,106.02L163.43,106.02z"
   class="st5" />
	<path
   id="bass"
   d="M787.5,144C742.88,97.3,678.93,59.34,604.82,34l0,0l-36.04,18.54l0,0c55.64,21.54,101.57,52.96,132.35,90.66   v0.3H787L787.5,144z"
   class="st6" />
	<path
   id="horn"
   d="M474.7,4.78C448.17,1.64,420.87,0,393,0c-50.39,0-98.9,5.35-144.36,15.25l0,0l22.59,20.06l0,0   C309.02,26.05,349.88,21,392.5,21c23.93,0,47.29,1.59,69.88,4.63l0,0L474.7,4.78L474.7,4.78z"
   class="st6" />
	<path
   id="brass"
   d="M604.82,34l-36.04,18.54l0,0c-16.66-6.45-34.2-12.01-52.46-16.6c-17.37-4.36-35.4-7.83-53.96-10.32l0,0   L474.7,4.78l0,0C520.76,10.23,564.49,20.2,604.82,34L604.82,34z"
   class="st5" />
	
	
	<path
   id="percussion"
   d="M172.57,37.02c24.16-8.69,49.59-16,76.07-21.77l0,0l22.59,20.06l13.41,11.91l0,0   c-18.95,4.83-36.87,10.89-53.5,18.03l0,0L172.57,37.02L172.57,37.02z"
   class="st5" />
	
	<path
   id="piano"
   d="M231.14,38.24l-58.56-28.22l0,0c-13.6,4.89-26.8,10.23-39.55,15.97l0,0l71.76,25.03l0,0   C213.14,46.45,221.94,42.18,231.14,38.24L231.14,38.24z"
   class="st6" />
	
	
	
	<path
   id="woodwind"
   d="M516.33,65.95l-30.44,26.53l0.17,0.19c-28.64-8.05-59.87-12.48-92.56-12.48c-32.37,0-63.31,4.34-91.72,12.24   l0,0l-17.14-15.22l-13.41-11.91l0,0C309.02,56.05,349.88,51,392.5,51C436.09,51,477.82,56.29,516.33,65.95L516.33,65.95z"
   class="st5" />
	
	
	<path
   id="violin-2"
   d="M163.43,166.02c30.7-25.89,72.56-46.4,121.21-58.81l0,0l52.89,46.97l0-0.01   c-22.56,7.05-40.87,18.24-52.04,31.85l0.03-0.03L163.43,166.02L163.43,166.02z"
   class="st6" />
</g>
</svg>