<?xml version="1.0" encoding="UTF-8" standalone="no"?>
<!-- Generator: Adobe Illustrator 23.0.6, SVG Export Plug-In . SVG Version: 6.00 Build 0)  -->

<svg
   xmlns:dc="http://purl.org/dc/elements/1.1/"
   xmlns:cc="http://creativecommons.org/ns#"
   xmlns:rdf="http://www.w3.org/1999/02/22-rdf-syntax-ns#"
   xmlns:svg="http://www.w3.org/2000/svg"
   xmlns="http://www.w3.org/2000/svg"
   xmlns:sodipodi="http://sodipodi.sourceforge.net/DTD/sodipodi-0.dtd"
   xmlns:inkscape="http://www.inkscape.org/namespaces/inkscape"
   version="1.1"
   id="Layer_1"
   x="0px"
   y="0px"
   viewBox="0 0 828 131.65"
   style="enable-background:new 0 0 828 131.65;"
   xml:space="preserve"
   sodipodi:docname="instrumentsection-is.svg"
   inkscape:version="0.92.5 (2060ec1f9f, 2020-04-08)"><metadata
   id="metadata3836"><rdf:RDF><cc:Work
       rdf:about=""><dc:format>image/svg+xml</dc:format><dc:type
         rdf:resource="http://purl.org/dc/dcmitype/StillImage" /><dc:title /></cc:Work></rdf:RDF></metadata><defs
   id="defs3834" /><sodipodi:namedview
   pagecolor="#000000"
   bordercolor="#666666"
   borderopacity="1"
   objecttolerance="10"
   gridtolerance="10"
   guidetolerance="10"
   inkscape:pageopacity="0"
   inkscape:pageshadow="2"
   inkscape:window-width="3706"
   inkscape:window-height="2049"
   id="namedview3832"
   showgrid="false"
   inkscape:zoom="2.9983719"
   inkscape:cx="324.32861"
   inkscape:cy="143.2943"
   inkscape:window-x="2694"
   inkscape:window-y="55"
   inkscape:window-maximized="1"
   inkscape:current-layer="g3829" />
<style
   type="text/css"
   id="style3800">
	.st0{fill:#FFFFFF;}
</style>
<g
   id="g3829">
	<g
   id="violins"
   inkscape:label="">
		<path
   class="st0"
   d="M0,130.75h278.7c0,0,5.39-12.59,17.98-19.78L89.9,62.43C89.9,62.43,32.36,84,0,130.75z"
   id="path14" />
	</g>
	<g
   id="percussion"
   inkscape:label="">
		<path
   class="st0"
   d="M99.79,56.13l48.55,12.59c0,0,39.56-25.17,160.03-44.95L292.18,7.59C292.18,7.59,211.27,12.98,99.79,56.13z"
   id="path17" />
	</g>
	<g
   id="timpani"
   inkscape:label="">
		<path
   class="st0"
   d="M320.95,21.97c0,0,14.38-1.8,35.96-3.6l-7.19-16.18c0,0-19.78,0-44.95,3.6L320.95,21.97z"
   id="path20" />
	</g>
	<g
   id="brass"
   inkscape:label="">
		<path
   class="st0"
   d="M364.1,2.19l7.19,16.18c0,0,88.1-5.39,181.6,10.79l25.17-14.38C578.07,14.78,473.79-6.8,364.1,2.19z"
   id="path23" />
	</g>
	<g
   id="woodwinds"
   inkscape:label="">
		<path
   class="st0"
   d="M279.6,34.56l77.32,53.94c0,0,39.56-10.79,113.28,0l76.32-52.94C546.5,35.56,430.63,9.38,279.6,34.56z"
   id="path26" />
	</g>
	<g
   id="cello-1"
   inkscape:label="">
		<path
   class="st0"
   d="M484.57,90.3c0,0,30.57,8.99,37.76,14.38l116.87-26.97c0,0-48.55-23.37-93.5-28.77L484.57,90.3z"
   id="path29" />
	</g>
	<g
   id="cello-2"
   inkscape:label="">
		<path
   class="st0"
   d="M531.32,110.07c0,0,14.38,10.79,17.98,21.58h152.83c0,0-19.78-35.96-53.94-48.55L531.32,110.07z"
   id="path32" />
	</g>
	<g
   id="bass"
   inkscape:label="">
		<path
   class="st0"
   d="M553.11,41.75l35.93-25.17c0,0,172.48,21.58,238.96,115.07H716.61C716.61,131.65,698.64,70.52,553.11,41.75z"
   id="path35" />
	</g>
	<g
   id="violas"
   inkscape:label="">
		<path
   class="st0"
   d="M307.58,105.09c0,0,16.18-8.99,37.76-14.38l-77.32-53.94c0,0-57.54,10.79-107.88,34.16L307.58,105.09z"
   id="path38" />
	</g>
</g>
</svg>