<?xml version="1.0" encoding="utf-8"?>
<!-- Generator: Adobe Illustrator 24.1.2, SVG Export Plug-In . SVG Version: 6.00 Build 0)  -->
<svg version="1.1" id="Layer_1" xmlns="http://www.w3.org/2000/svg" xmlns:xlink="http://www.w3.org/1999/xlink" x="0px" y="0px"
	 viewBox="0 0 787.78 203.5" style="enable-background:new 0 0 787.78 203.5;" xml:space="preserve">
<style type="text/css">
	.st0{fill:#C9C7C8;}
	.st1{opacity:0.15;fill:#FFFFFF;}
	.st2{opacity:0.15;fill:url(#SVGID_1_);}
	.st3{opacity:0.15;fill:url(#SVGID_2_);}
	.st4{opacity:0.15;fill:url(#SVGID_3_);}
	.st5{fill:#EDE7E7;}
	.st6{fill:#E0DADA;}
	.st7{opacity:0.1;}
	.st8{opacity:0.07;}
</style>
<g>
	<polygon class="st0" points="133.02,52.99 133.02,25.99 194.69,39.49 305.28,15.25 422.08,10.02 503.48,20.39 591.96,45.6 
		704.77,102.67 728.66,180.53 701.14,203.5 592.84,146.62 520.29,121.7 494.19,132.2 401.28,120.81 293.34,137.18 231.14,139.39 
		129.51,203.5 111.15,134.52 	"/>
	<polygon class="st1" points="462.38,25.63 462.38,60.87 516.33,65.95 516.33,95.95 557.23,119.26 568.79,112.54 568.79,52.54 
		534.67,34 469.63,23.26 	"/>
	<linearGradient id="SVGID_1_" gradientUnits="userSpaceOnUse" x1="257.0631" y1="46.6354" x2="371.6435" y2="46.6354">
		<stop  offset="0" style="stop-color:#000000"/>
		<stop  offset="1" style="stop-color:#000000;stop-opacity:0"/>
	</linearGradient>
	<polygon class="st2" points="257.06,34 371.64,15.25 371.64,59.76 257.06,78.02 	"/>
	<linearGradient id="SVGID_2_" gradientUnits="userSpaceOnUse" x1="129.5128" y1="140.76" x2="204.7837" y2="140.76">
		<stop  offset="0" style="stop-color:#000000"/>
		<stop  offset="1" style="stop-color:#000000;stop-opacity:0"/>
	</linearGradient>
	<polygon class="st3" points="129.51,143.5 129.51,203.5 204.78,138.03 204.78,78.02 154.38,104.54 129.51,129.44 	"/>
	
		<linearGradient id="SVGID_3_" gradientUnits="userSpaceOnUse" x1="8111.4722" y1="140.76" x2="8186.7432" y2="140.76" gradientTransform="matrix(-1 0 0 1 8812.6084 0)">
		<stop  offset="0" style="stop-color:#000000"/>
		<stop  offset="1" style="stop-color:#000000;stop-opacity:0"/>
	</linearGradient>
	<polygon class="st4" points="701.14,143.5 701.14,203.5 625.87,138.03 625.87,78.02 676.27,104.54 701.14,129.44 	"/>
	<path class="st5" d="M129.51,203.5h146.15l0,0c2-6.14,5.33-12,9.82-17.47l0.03-0.03l-122.09-19.97l0,0
		C149.79,177.53,138.36,190.1,129.51,203.5L129.51,203.5z"/>
	<path class="st5" d="M485.89,122.48l-36.39,31.72l0-0.01c-16.72-5.23-35.77-8.19-56-8.19c-20.21,0-39.26,2.96-55.97,8.18l0,0.01
		l-35.75-31.74l0,0c28.41-7.9,59.35-12.24,91.72-12.24c32.69,0,63.86,4.25,92.5,12.3L485.89,122.48z"/>
	<path class="st6" d="M485.89,122.48l30.44-26.53l0,0c79.23,19.88,144.81,58.27,184.8,107.25v0.3H511.06H511
		c-6-21-30.29-39.55-61.5-49.31l0,0.01L485.89,122.48z"/>
	<polygon class="st0" points="284.64,47.22 284.64,107.22 250.48,84.53 247.55,52.99 	"/>
	<path class="st6" d="M0,143.5h129.51l0-0.01c8.84-13.39,20.28-25.96,33.92-37.47l0,0L65.45,89.99l0-0.01
		C40.89,106.21,18.73,123.98,0,143.5L0,143.5z"/>
	<path class="st5" d="M163.43,106.02L65.45,89.99l0-0.01c20.72-13.69,43.34-26.09,67.57-37l0,0l71.76,25.03l0,0
		C189.44,86.4,175.56,95.79,163.43,106.02L163.43,106.02z"/>
	<path class="st6" d="M787.5,144C742.88,97.3,678.93,59.34,604.82,34l0,0l-36.04,18.54l0,0c55.64,21.54,101.57,52.96,132.35,90.66
		v0.3H787L787.5,144z"/>
	<path class="st6" d="M474.7,4.78C448.17,1.64,420.87,0,393,0c-50.39,0-98.9,5.35-144.36,15.25l0,0l22.59,20.06l0,0
		C309.02,26.05,349.88,21,392.5,21c23.93,0,47.29,1.59,69.88,4.63l0,0L474.7,4.78L474.7,4.78z"/>
	<path class="st5" d="M604.82,34l-36.04,18.54l0,0c-16.66-6.45-34.2-12.01-52.46-16.6c-17.37-4.36-35.4-7.83-53.96-10.32l0,0
		L474.7,4.78l0,0C520.76,10.23,564.49,20.2,604.82,34L604.82,34z"/>
	<rect y="143.5" class="st0" width="129.51" height="60"/>
	<rect x="701.14" y="143.5" class="st0" width="86.64" height="60"/>
	<path class="st5" d="M172.57,37.02c24.16-8.69,49.59-16,76.07-21.77l0,0l22.59,20.06l13.41,11.91l0,0
		c-18.95,4.83-36.87,10.89-53.5,18.03l0,0L172.57,37.02L172.57,37.02z"/>
	<polygon class="st0" points="231.14,38.24 231.14,65.24 196.12,67.39 171.24,51 179.87,33.55 	"/>
	<path class="st6" d="M231.14,38.24l-58.56-28.22l0,0c-13.6,4.89-26.8,10.23-39.55,15.97l0,0l71.76,25.03l0,0
		C213.14,46.45,221.94,42.18,231.14,38.24L231.14,38.24z"/>
	<polygon class="st7" points="301.78,92.44 301.78,122.44 284.64,107.22 284.64,77.22 	"/>
	<polygon class="st7" points="485.89,92.48 485.89,122.48 516.33,95.95 516.33,65.95 	"/>
	<polygon class="st8" points="204.78,51.02 204.78,78.02 133.02,52.99 133.02,25.99 	"/>
	<path class="st5" d="M516.33,65.95l-30.44,26.53l0.17,0.19c-28.64-8.05-59.87-12.48-92.56-12.48c-32.37,0-63.31,4.34-91.72,12.24
		l0,0l-17.14-15.22l-13.41-11.91l0,0C309.02,56.05,349.88,51,392.5,51C436.09,51,477.82,56.29,516.33,65.95L516.33,65.95z"/>
	<polygon class="st0" points="284.64,52.99 284.64,89 260.16,65.24 	"/>
	<path class="st1" d="M163.43,106.16v60l62.38-25.26l58.82-33.54v-60C284.64,47.36,214.09,63.06,163.43,106.16z"/>
	<path class="st6" d="M163.43,166.02c30.7-25.89,72.56-46.4,121.21-58.81l0,0l52.89,46.97l0-0.01
		c-22.56,7.05-40.87,18.24-52.04,31.85l0.03-0.03L163.43,166.02L163.43,166.02z"/>
</g>
</svg>
